<svg width="497" height="160" viewBox="0 0 497 160" fill="none" xmlns="http://www.w3.org/2000/svg">
<path d="M0 80C0 35.8172 35.8172 0 80 0H240.854H417C461.183 0 497 35.8172 497 80C497 124.183 461.183 160 417 160H80C35.8172 160 0 124.183 0 80Z" fill="#09A0A0"/>
<path d="M68.88 94.77C65.8367 94.77 63.0133 94.2933 60.41 93.34C57.8433 92.35 55.6067 90.9567 53.7 89.16C51.83 87.3633 50.3633 85.255 49.3 82.835C48.2367 80.3783 47.705 77.6833 47.705 74.75C47.705 71.8167 48.2367 69.14 49.3 66.72C50.3633 64.2633 51.83 62.1367 53.7 60.34C55.6067 58.5433 57.8433 57.1683 60.41 56.215C63.0133 55.225 65.8367 54.73 68.88 54.73C72.4367 54.73 75.6083 55.3533 78.395 56.6C81.2183 57.8467 83.565 59.6433 85.435 61.99L78.505 68.26C77.2583 66.7933 75.8833 65.675 74.38 64.905C72.9133 64.135 71.2633 63.75 69.43 63.75C67.8533 63.75 66.405 64.0067 65.085 64.52C63.765 65.0333 62.6283 65.785 61.675 66.775C60.7583 67.7283 60.025 68.8833 59.475 70.24C58.9617 71.5967 58.705 73.1 58.705 74.75C58.705 76.4 58.9617 77.9033 59.475 79.26C60.025 80.6167 60.7583 81.79 61.675 82.78C62.6283 83.7333 63.765 84.4667 65.085 84.98C66.405 85.4933 67.8533 85.75 69.43 85.75C71.2633 85.75 72.9133 85.365 74.38 84.595C75.8833 83.825 77.2583 82.7067 78.505 81.24L85.435 87.51C83.565 89.82 81.2183 91.6167 78.395 92.9C75.6083 94.1467 72.4367 94.77 68.88 94.77ZM110.649 94L101.574 80.085L109.989 75.135L122.969 94H110.649ZM89.7495 94V64.19H100.199V94H89.7495ZM97.1195 83.385V75.19H107.899V83.385H97.1195ZM111.034 80.25L101.244 79.26L111.254 64.19H122.309L111.034 80.25ZM143.552 94V88.445L142.837 87.07V76.84C142.837 75.19 142.324 73.925 141.297 73.045C140.307 72.1283 138.712 71.67 136.512 71.67C135.082 71.67 133.634 71.9083 132.167 72.385C130.7 72.825 129.454 73.4483 128.427 74.255L124.907 67.16C126.594 66.06 128.61 65.2167 130.957 64.63C133.34 64.0067 135.705 63.695 138.052 63.695C142.892 63.695 146.632 64.8133 149.272 67.05C151.949 69.25 153.287 72.715 153.287 77.445V94H143.552ZM134.752 94.495C132.369 94.495 130.352 94.0917 128.702 93.285C127.052 92.4783 125.787 91.3783 124.907 89.985C124.064 88.5917 123.642 87.0333 123.642 85.31C123.642 83.4767 124.1 81.9 125.017 80.58C125.97 79.2233 127.419 78.1967 129.362 77.5C131.305 76.7667 133.817 76.4 136.897 76.4H143.937V81.845H138.327C136.64 81.845 135.449 82.12 134.752 82.67C134.092 83.22 133.762 83.9533 133.762 84.87C133.762 85.7867 134.11 86.52 134.807 87.07C135.504 87.62 136.457 87.895 137.667 87.895C138.804 87.895 139.83 87.62 140.747 87.07C141.7 86.4833 142.397 85.6033 142.837 84.43L144.267 88.28C143.717 90.3333 142.635 91.8917 141.022 92.955C139.445 93.9817 137.355 94.495 134.752 94.495ZM178.439 83C177.412 83.6233 176.22 84.1367 174.864 84.54C173.507 84.9067 171.93 85.09 170.134 85.09C165.99 85.09 162.855 84.1733 160.729 82.34C158.639 80.47 157.594 77.5 157.594 73.43V64.19H168.044V72.715C168.044 74.4017 168.429 75.5933 169.199 76.29C169.969 76.9867 171.087 77.335 172.554 77.335C173.69 77.335 174.735 77.2067 175.689 76.95C176.679 76.6567 177.577 76.2717 178.384 75.795L178.439 83ZM177.724 94V64.19H188.119V94H177.724ZM212.839 94V88.445L212.124 87.07V76.84C212.124 75.19 211.611 73.925 210.584 73.045C209.594 72.1283 207.999 71.67 205.799 71.67C204.369 71.67 202.921 71.9083 201.454 72.385C199.987 72.825 198.741 73.4483 197.714 74.255L194.194 67.16C195.881 66.06 197.897 65.2167 200.244 64.63C202.627 64.0067 204.992 63.695 207.339 63.695C212.179 63.695 215.919 64.8133 218.559 67.05C221.236 69.25 222.574 72.715 222.574 77.445V94H212.839ZM204.039 94.495C201.656 94.495 199.639 94.0917 197.989 93.285C196.339 92.4783 195.074 91.3783 194.194 89.985C193.351 88.5917 192.929 87.0333 192.929 85.31C192.929 83.4767 193.387 81.9 194.304 80.58C195.257 79.2233 196.706 78.1967 198.649 77.5C200.592 76.7667 203.104 76.4 206.184 76.4H213.224V81.845H207.614C205.927 81.845 204.736 82.12 204.039 82.67C203.379 83.22 203.049 83.9533 203.049 84.87C203.049 85.7867 203.397 86.52 204.094 87.07C204.791 87.62 205.744 87.895 206.954 87.895C208.091 87.895 209.117 87.62 210.034 87.07C210.987 86.4833 211.684 85.6033 212.124 84.43L213.554 88.28C213.004 90.3333 211.922 91.8917 210.309 92.955C208.732 93.9817 206.642 94.495 204.039 94.495ZM235.516 94V70.185L237.771 72.495H225.891V64.19H255.481V72.495H243.601L245.911 70.185V94H235.516ZM277.02 73.43C280.98 73.4667 284.005 74.3467 286.095 76.07C288.185 77.7933 289.23 80.25 289.23 83.44C289.23 86.74 288.02 89.3433 285.6 91.25C283.216 93.12 279.916 94.0367 275.7 94H259.53V64.19H269.925V73.43H277.02ZM274.655 86.85C275.901 86.85 276.873 86.5567 277.57 85.97C278.266 85.3833 278.615 84.485 278.615 83.275C278.615 82.0283 278.266 81.1483 277.57 80.635C276.91 80.1217 275.938 79.8467 274.655 79.81H269.925V86.795L274.655 86.85ZM316.571 104.67C314.297 101.37 312.537 97.52 311.291 93.12C310.081 88.6833 309.476 83.9533 309.476 78.93C309.476 73.9067 310.081 69.195 311.291 64.795C312.537 60.3583 314.297 56.49 316.571 53.19H326.581C324.197 57.4433 322.456 61.66 321.356 65.84C320.256 70.02 319.706 74.3833 319.706 78.93C319.706 83.4767 320.256 87.84 321.356 92.02C322.456 96.2 324.197 100.417 326.581 104.67H316.571ZM342.374 94.495C339.954 94.495 337.772 94.0183 335.829 93.065C333.922 92.1117 332.419 90.6267 331.319 88.61C330.255 86.5567 329.724 83.9717 329.724 80.855V64.19H340.174V79.15C340.174 81.46 340.595 83.11 341.439 84.1C342.319 85.09 343.547 85.585 345.124 85.585C346.15 85.585 347.085 85.3467 347.929 84.87C348.772 84.3933 349.45 83.6417 349.964 82.615C350.477 81.5517 350.734 80.195 350.734 78.545V64.19H361.184V94H351.229V85.585L353.154 87.95C352.127 90.15 350.642 91.8 348.699 92.9C346.755 93.9633 344.647 94.495 342.374 94.495ZM376.605 88.5L376.88 76.015L389.035 64.19H401.41L387.935 78.105L382.6 82.395L376.605 88.5ZM367.915 94V53.19H378.365V94H367.915ZM389.805 94L380.675 82.56L387.165 74.53L402.455 94H389.805ZM405.512 94V64.19H415.467V72.88L413.982 70.405C414.862 68.1683 416.292 66.5 418.272 65.4C420.252 64.2633 422.654 63.695 425.477 63.695V73.1C425.001 73.0267 424.579 72.99 424.212 72.99C423.882 72.9533 423.516 72.935 423.112 72.935C420.986 72.935 419.262 73.5217 417.942 74.695C416.622 75.8317 415.962 77.7017 415.962 80.305V94H405.512ZM436.335 104.67H426.325C428.745 100.417 430.486 96.2 431.55 92.02C432.65 87.84 433.2 83.4767 433.2 78.93C433.2 74.3833 432.65 70.02 431.55 65.84C430.486 61.66 428.745 57.4433 426.325 53.19H436.335C438.645 56.49 440.405 60.3583 441.615 64.795C442.825 69.195 443.43 73.9067 443.43 78.93C443.43 83.9533 442.825 88.6833 441.615 93.12C440.405 97.52 438.645 101.37 436.335 104.67Z" fill="white"/>
</svg>
